# xmcd
#
# Track frame offsets: 
#        182
#        12660
#        21122
#        31317
#        42592
#        53475
#        66045
#        76022
#        85215
#        95665
#        105767
#        116670
#        127015
#        138045
#        149890
#        161175
#        171047
#        180135
#
# Disc length: 2552 seconds
#
# Revision: 2
# Processed by: cddbd v1.5.1PL0 Copyright (c) Steve Scherf et al.
# Submitted via: ExactAudioCopy v0.95a5
#
DISCID=e809f612
DTITLE=Johnny Cash - Country Classics [CD1]
DYEAR=1995
DGENRE=Country
TTITLE0=I Walk The Line
TTITLE1=Country Boy
TTITLE2=Get Rhythm
TTITLE3=Oh Lonesome Me
TTITLE4=Train Of Love
TTITLE5=Give My Love To Rose
TTITLE6=Ballad Of A Teenage Queen
TTITLE7=Blue Train
TTITLE8=You Win Again
TTITLE9=Hey Porter
TTITLE10=Wide Open Road
TTITLE11=There You Go
TTITLE12=Cry! Cry! Cry!
TTITLE13=So Doggone Lonesome
TTITLE14=Mean Eyed Cat
TTITLE15=Rock Island Line
TTITLE16=Two Timin' Woman
TTITLE17=Big River
EXTD=
EXTT0=
EXTT1=
EXTT2=
EXTT3=
EXTT4=
EXTT5=
EXTT6=
EXTT7=
EXTT8=
EXTT9=
EXTT10=
EXTT11=
EXTT12=
EXTT13=
EXTT14=
EXTT15=
EXTT16=
EXTT17=
PLAYORDER=
